<?xml version="1.0" encoding="UTF-8"?>
<svg version="1.1" xmlns="http://www.w3.org/2000/svg" width="469" height="458">
<path d="M0 0 C1.83691406 -0.00773437 1.83691406 -0.00773437 3.7109375 -0.015625 C5.61746094 0.00757813 5.61746094 0.00757813 7.5625 0.03125 C8.83351563 0.01578125 10.10453125 0.0003125 11.4140625 -0.015625 C12.63867188 -0.01046875 13.86328125 -0.0053125 15.125 0 C16.79755859 0.00676758 16.79755859 0.00676758 18.50390625 0.01367188 C22.33467357 0.66191794 23.73460532 1.88503106 26.5625 4.53125 C28.39919567 7.46914768 28.39919567 7.46914768 30.1335907 10.95863342 C30.45749135 11.60201375 30.78139201 12.24539408 31.11510783 12.90827078 C32.19328021 15.05709904 33.25410891 17.21402308 34.31518555 19.37133789 C35.08682736 20.91795293 35.85953465 22.46403676 36.63322449 24.0096283 C38.73101086 28.20775072 40.81396108 32.41308094 42.89448142 36.61978078 C45.08304115 41.03824939 47.28560194 45.44972654 49.48677063 49.86192322 C53.66323605 58.23868057 57.82778401 66.62130172 61.98778421 75.00624603 C68.0610561 87.24633489 74.15168356 99.47778395 80.2427721 111.70901394 C81.14840964 113.52764093 82.05404265 115.34627018 82.95967102 117.16490173 C83.40274859 118.05460661 83.84582615 118.94431148 84.30233032 119.86097711 C86.9080004 125.0941947 89.51018996 130.32912349 92.10911691 135.56569302 C93.74179523 138.85477807 95.37616862 142.14301924 97.01077461 145.43114662 C97.75722191 146.93373614 98.50291305 148.43670163 99.24770355 149.94011307 C103.22391234 157.96572296 107.28093347 165.93912195 111.47148132 173.85516357 C116.59856667 183.54222556 121.52555285 193.32266728 126.41845703 203.12963867 C127.35570852 205.00442469 128.29313769 206.87912188 129.23072815 208.7537384 C131.74217721 213.77635305 134.25118171 218.80018506 136.75970316 223.82426238 C139.39408357 229.09933259 142.03077424 234.37324782 144.66720581 239.64729309 C149.64442674 249.60482613 154.61961 259.56337578 159.59403694 269.52230483 C165.26366177 280.8727849 170.93559539 292.22211069 176.60771012 303.57134664 C188.26185138 326.89004334 199.91313514 350.21016682 211.5625 373.53125 C213.61691848 370.83934126 215.3266462 368.25172518 216.83984375 365.21948242 C217.26458984 364.37306686 217.68933594 363.52665131 218.12695312 362.65458679 C218.58005859 361.74119034 219.03316406 360.82779388 219.5 359.88671875 C219.98017578 358.92590897 220.46035156 357.96509918 220.95507812 356.97517395 C221.97569027 354.93092735 222.99435691 352.88570847 224.01123047 350.83959961 C225.52518329 347.79382389 227.04520237 344.75114381 228.56640625 341.70898438 C233.9787862 330.86402738 239.28252483 319.97364668 244.48828125 309.02812195 C248.9230756 299.72669236 253.52977083 290.51492439 258.16333008 281.3112793 C267.27253218 263.24946361 267.27253218 263.24946361 276.0625 245.03125 C281.83538382 232.76630154 287.97172443 220.6811614 294.05029297 208.56591797 C301.68370305 193.36088382 301.68370305 193.36088382 309.0625 178.03125 C314.83538382 165.76630154 320.97172443 153.6811614 327.05029297 141.56591797 C334.68370305 126.36088382 334.68370305 126.36088382 342.0625 111.03125 C347.83186752 98.77377221 353.9642226 86.69587561 360.03921509 74.58807373 C365.35883755 63.98254012 370.67020204 53.37930473 375.75 42.65625 C383.0605879 27.26927203 383.0605879 27.26927203 386.4375 20.34375 C386.87860107 19.4151416 387.31970215 18.4865332 387.77416992 17.52978516 C390.07749934 12.84583633 391.94237447 9.3063749 396.5625 6.53125 C399.5625 5.96875 399.5625 5.96875 402.5625 6.53125 C405.4375 8.59375 405.4375 8.59375 407.5625 11.53125 C408.29768629 17.721283 406.45930994 21.70375751 403.69799805 27.0390625 C403.28651016 27.86145416 402.87502228 28.68384583 402.45106506 29.53115845 C401.08850334 32.24632048 399.70643733 34.95104937 398.32421875 37.65625 C397.36279051 39.56347822 396.4026737 41.47136805 395.44380188 43.37988281 C392.91035617 48.41438543 390.3606172 53.44045433 387.8069458 58.46472168 C385.25266756 63.49557539 382.71122794 68.53289669 380.16992188 73.5703125 C379.67678812 74.54779449 379.18365437 75.52527649 378.67557716 76.53237915 C377.69131675 78.48344878 376.70711731 80.43454917 375.7229805 82.38568115 C374.26689706 85.2709889 372.80891324 88.15533033 371.35067749 91.03955078 C365.71758475 102.19032242 360.20270881 113.3815128 354.87036133 124.6796875 C351.17995644 132.48568773 347.27281178 140.18507475 343.38919067 147.8961792 C334.60311625 165.32577162 334.60311625 165.32577162 326.125 182.90625 C320.80048053 194.21197967 315.16630306 205.36229159 309.5625 216.53125 C301.17211201 233.21251679 301.17211201 233.21251679 293.0625 250.03125 C287.28961618 262.29619846 281.15327557 274.3813386 275.07470703 286.49658203 C267.44129695 301.70161618 267.44129695 301.70161618 260.0625 317.03125 C254.29581927 329.28301949 248.17010379 341.35766184 242.09283447 353.45730591 C236.15147577 365.2875827 230.22868706 377.11668678 224.70703125 389.15039062 C222.74034286 393.37500175 220.85345518 397.14759186 217.5625 400.53125 C213.79891167 401.62611206 211.64766314 402.02189959 208.03979492 400.390625 C205.0334916 398.13419393 203.98350601 396.16204015 202.36328125 392.78125 C201.79287109 391.61335938 201.22246094 390.44546875 200.63476562 389.2421875 C200.0474996 388.00552983 199.46090982 386.7685508 198.875 385.53125 C197.72771562 383.15501461 196.57838651 380.77989608 195.42578125 378.40625 C195.14288034 377.82071161 194.85997943 377.23517323 194.56850576 376.63189125 C192.16853636 371.69544932 189.63218754 366.84241566 187.05334473 361.99755859 C181.1400714 350.81844897 175.48983931 339.51201272 169.84570312 328.1953125 C168.70793834 325.9178586 167.56998833 323.64049722 166.43186951 321.36322021 C164.00106764 316.49848025 161.57145852 311.63314767 159.14292908 306.76727295 C155.62140719 299.71154229 152.09720072 292.65715503 148.57231218 285.60310578 C142.83666814 274.12478297 137.10252056 262.64571336 131.36962891 251.16601562 C131.0280051 250.4819402 130.68638129 249.79786477 130.33440524 249.09305978 C127.56360888 243.5447245 124.79288603 237.9963525 122.02216625 232.44797897 C119.59993559 227.5974636 117.17767553 222.74696291 114.75537109 217.89648438 C114.41417388 217.21326182 114.07297666 216.53003926 113.72144014 215.82611299 C108.00691729 204.38332221 102.290787 192.94133513 96.57353735 181.49990654 C93.06277096 174.47392754 89.55341426 167.447248 86.04596317 160.41961336 C83.35215373 155.0224749 80.65624477 149.62638789 77.95961189 144.23065948 C76.86332351 142.03622854 75.76771927 139.84145563 74.67289543 137.64629364 C68.80231591 125.87652665 62.83999283 114.16742634 56.6827507 102.5449276 C54.28097356 98.00955219 51.94921688 93.4418616 49.66357422 88.84692383 C49.26221756 88.04435654 48.8608609 87.24178925 48.44734192 86.41490173 C47.16871701 83.85697538 45.89290048 81.2976609 44.6171875 78.73828125 C43.71242701 76.92688798 42.80748558 75.11558507 41.90237427 73.30436707 C39.55639638 68.6086498 37.21282582 63.91173537 34.86981201 59.21453857 C32.46418412 54.39292918 30.05620213 49.57249575 27.6484375 44.75195312 C22.95086326 35.34618015 18.25583977 25.93913655 13.5625 16.53125 C12.69298706 16.51723145 12.69298706 16.51723145 11.8059082 16.50292969 C9.16143054 16.4490093 6.51868107 16.36540871 3.875 16.28125 C2.96298828 16.26707031 2.05097656 16.25289062 1.11132812 16.23828125 C-3.15376314 16.08318702 -5.80927511 15.90107295 -9.54296875 13.703125 C-11.4375 11.53125 -11.4375 11.53125 -12.0625 8.03125 C-11.4375 4.53125 -11.4375 4.53125 -9.30078125 2.34570312 C-5.90846826 0.1960041 -3.98840406 0.01613805 0 0 Z " fill="#F5991B" transform="translate(55.4375,52.46875)"/>
<path d="M0 0 C1.28505936 -0.025746 2.57011871 -0.051492 3.89411926 -0.07801819 C9.77342928 -0.16744477 15.65292309 -0.22806988 21.53271484 -0.27441406 C24.63825484 -0.30117614 27.74226326 -0.34992388 30.84716797 -0.41796875 C34.59736905 -0.4999431 38.34611012 -0.54259906 42.09715843 -0.55747795 C43.52504036 -0.5697218 44.95287429 -0.5957476 46.3802433 -0.6359272 C48.38044774 -0.68941525 50.38189712 -0.68764877 52.3828125 -0.68359375 C53.52039505 -0.69834244 54.6579776 -0.71309113 55.83003235 -0.72828674 C59.86282528 0.55034967 60.72874027 2.32975601 62.71598721 5.93821621 C63.10192578 6.69796277 63.48786436 7.45770933 63.88549805 8.24047852 C64.26146401 8.9461625 64.63742998 9.65184649 65.02478886 10.37891483 C66.21527665 12.64749262 67.36196964 14.93428903 68.5012207 17.22900391 C68.93294586 18.09055588 69.36467102 18.95210785 69.80947876 19.83976746 C71.22674753 22.6706214 72.63825823 25.50430219 74.04956055 28.33813477 C75.04710093 30.33441049 76.04493961 32.33053719 77.0430603 34.32652283 C79.13511025 38.5121843 81.22447588 42.69917076 83.31176758 46.88720703 C85.9531716 52.18684508 88.59970461 57.48389952 91.24814796 62.78002262 C93.31244544 66.90889339 95.37463226 71.03881552 97.43616867 75.16906548 C98.409074 77.11800425 99.38242603 79.06672012 100.35628128 81.0151844 C105.43086562 91.17257253 110.43964168 101.35550592 115.31665039 111.609375 C120.52338763 122.5515001 125.90604598 133.40010695 131.34249878 144.22964478 C133.00346737 147.5384796 134.66169584 150.84867622 136.31933594 154.15917969 C139.839095 161.18743056 143.36203498 168.21408399 146.88549805 175.24047852 C150.97798155 183.40159819 155.06904936 191.56342158 159.15670776 199.72695923 C160.76717105 202.94154436 162.38009187 206.15488751 163.99316406 209.36816406 C169.3595327 220.07451915 174.6220662 230.82154466 179.76467609 241.63713932 C184.9268555 252.47063163 190.30068833 263.19643154 195.6784668 273.92407227 C196.76151445 276.08829534 197.84438128 278.25260891 198.92707825 280.41700745 C201.73471297 286.02851497 204.54475024 291.63881578 207.35534668 297.24884033 C210.23993991 303.00767415 213.12218054 308.76768518 216.00463867 314.52758789 C221.62933243 325.76635013 227.25657336 337.0038348 232.88549805 348.24047852 C233.41273972 347.18558731 233.93998138 346.13069611 234.48320007 345.0438385 C241.18833932 331.62992974 241.18833932 331.62992974 244.25410461 325.52891541 C245.69625489 322.65884472 247.13561167 319.78737436 248.57519531 316.91601562 C249.31762736 315.43615597 250.06077947 313.95665732 250.8046875 312.47753906 C255.83866847 302.46623857 260.74080787 292.39947474 265.55888367 282.28251648 C270.57365457 271.76683649 275.71088519 261.31217851 280.8536377 250.85864258 C283.71876471 245.03424233 286.57959099 239.20773088 289.44018555 233.38110352 C290.00282104 232.23516724 290.56545654 231.08923096 291.1451416 229.90856934 C295.66568496 220.6973421 300.16053553 211.47392168 304.63549805 202.24047852 C310.96329216 189.18585951 317.32308446 176.14715499 323.69799805 163.11547852 C325.57693988 159.27435008 327.45586048 155.43321128 329.3347168 151.59204102 C329.79920227 150.64244507 330.26368774 149.69284912 330.74224854 148.71447754 C336.32487116 137.29976226 341.89561221 125.87925513 347.46435547 114.45776367 C348.28181701 112.78116732 349.0992812 111.10457227 349.91674805 109.42797852 C350.52302788 108.18448135 350.52302788 108.18448135 351.14155579 106.91586304 C353.71966573 101.62887801 356.30037563 96.34316956 358.88285828 91.05831909 C360.65868724 87.42414591 362.43383972 83.78964252 364.20889282 80.15509033 C365.07057402 78.39107936 365.93252893 76.62720207 366.79476929 74.86346436 C372.55286342 63.0858292 372.55286342 63.0858292 378.1862793 51.24829102 C378.87633057 49.77827637 378.87633057 49.77827637 379.58032227 48.27856445 C380.36354205 46.60010445 381.14076445 44.9188203 381.90942383 43.23364258 C387.54481639 31.11823414 387.54481639 31.11823414 392.88549805 29.11547852 C396.42591112 29.26299573 398.09961816 30.09137118 400.88549805 32.24047852 C402.3634194 35.19632122 402.2312064 36.91350027 401.88549805 40.24047852 C400.53040948 43.68257315 398.80549821 46.91279164 397.07299805 50.17797852 C393.1611356 57.68105895 389.42416007 65.24498349 385.7878418 72.88500977 C380.25417174 84.5087503 374.60022037 96.07091241 368.9173584 107.62231445 C366.05223138 113.4467147 363.1914051 119.27322615 360.33081055 125.09985352 C359.76817505 126.24578979 359.20553955 127.39172607 358.62585449 128.5723877 C354.10531124 137.78361471 349.61042952 147.00702046 345.13549805 156.24047852 C338.78754348 169.3370969 332.40634856 182.41718187 326.01049805 195.49047852 C319.12354727 209.56801555 312.24525796 223.64967087 305.38549805 237.74047852 C298.56633598 251.74742547 291.73029033 265.74603923 284.88549805 279.74047852 C278.25833586 293.2913578 271.63337288 306.84329825 265.02368164 320.40270996 C264.22887347 322.03297173 263.43379277 323.66310066 262.63842773 325.29309082 C258.69910588 333.3666403 254.77558473 341.44655604 250.9206543 349.56079102 C250.31202876 350.83863116 249.70338671 352.11646345 249.09472656 353.39428711 C247.99181054 355.71480603 246.89424093 358.03787719 245.80322266 360.36401367 C245.32506104 361.36996582 244.84689941 362.37591797 244.35424805 363.41235352 C243.94625977 364.27957031 243.53827148 365.14678711 243.11791992 366.0402832 C241.90128941 368.2122868 240.81014249 369.67130188 238.88549805 371.24047852 C236.3269043 371.70922852 236.3269043 371.70922852 233.44799805 371.74047852 C232.50053711 371.77141602 231.55307617 371.80235352 230.5769043 371.83422852 C226.83859869 371.00952249 226.08614574 369.33264586 223.88549805 366.24047852 C222.62598735 363.98241543 221.44177235 361.74393383 220.30126953 359.4284668 C219.9672261 358.76242432 219.63318268 358.09638184 219.28901672 357.41015625 C218.18905081 355.21322349 217.0977361 353.01211675 216.0065918 350.81079102 C215.23200136 349.25854447 214.45693242 347.70653663 213.68141174 346.15475464 C212.05298966 342.89330906 210.42850515 339.62994413 208.80712891 336.36499023 C206.76445777 332.25177194 204.71517054 328.14190108 202.66314602 324.03334236 C200.67097098 320.04373232 198.68248334 316.05228766 196.6940918 312.06079102 C196.33083738 311.33240147 195.96758297 310.60401192 195.59332085 309.85354996 C191.17494767 300.98730678 186.84533728 292.08356903 182.58886719 283.13842773 C177.33515089 272.10845847 171.90959115 261.16977605 166.42849731 250.25131226 C164.76752872 246.94247743 163.10930025 243.63228081 161.45166016 240.32177734 C157.93190109 233.29352647 154.40896111 226.26687305 150.88549805 219.24047852 C146.79301454 211.07935884 142.70194673 202.91753545 138.61428833 194.7539978 C137.00382504 191.53941267 135.39090422 188.32606952 133.77783203 185.11279297 C128.41213234 174.4077427 123.1510061 163.66179848 118.00931549 152.84739685 C113.33671793 143.04220225 108.48689849 133.32840942 103.61369324 123.6217041 C101.98632599 120.38008092 100.36170526 117.13709294 98.7376709 113.89379883 C95.2892432 107.00820657 91.83763319 100.12421261 88.38549805 93.24047852 C84.37561782 85.2445722 80.367157 77.24796041 76.36210632 69.24963379 C74.7848832 66.10152526 73.20520134 62.95465964 71.62536621 59.80786133 C65.2473979 47.0837782 59.02842858 34.29153058 52.93436432 21.42901611 C51.94014527 19.35450401 50.92075731 17.29476894 49.88549805 15.24047852 C48.8431324 15.23167915 48.8431324 15.23167915 47.77970886 15.22270203 C41.23173796 15.16480511 34.68409416 15.09274625 28.13645458 15.0047636 C24.77019327 14.96003011 21.40405381 14.92078112 18.03759766 14.89404297 C14.16758084 14.86058871 10.29821358 14.80827599 6.4284668 14.75219727 C5.21901901 14.74580734 4.00957123 14.73941742 2.76347351 14.73283386 C1.08207024 14.70314262 1.08207024 14.70314262 -0.63330078 14.67285156 C-2.11555901 14.65619698 -2.11555901 14.65619698 -3.62776184 14.63920593 C-6.51223258 14.17670583 -7.3903266 13.55432398 -9.11450195 11.24047852 C-10.16536388 8.16872826 -10.22741423 6.62264316 -9.30200195 3.49047852 C-7.150119 -0.58677339 -4.27364788 0.08248046 0 0 Z " fill="#F7AE38" transform="translate(34.114501953125,30.759521484375)"/>
<path d="M0 0 C1.23262825 -0.00788544 1.23262825 -0.00788544 2.49015808 -0.01593018 C5.19871184 -0.02910295 7.90667493 -0.02040183 10.61523438 -0.01025391 C12.5018322 -0.01227543 14.38842926 -0.01518752 16.27502441 -0.01895142 C20.22590588 -0.02337108 24.17658365 -0.01695521 28.12744141 -0.00292969 C33.18829818 0.01416196 38.24867764 0.00431886 43.30951691 -0.01364708 C47.20432116 -0.02449456 51.09901251 -0.02103414 54.99382019 -0.0132637 C56.85971636 -0.01126437 58.72562282 -0.01371161 60.59150696 -0.02070236 C63.20060327 -0.02833269 65.80892969 -0.01669069 68.41796875 0 C69.18694992 -0.00607269 69.95593109 -0.01214539 70.74821472 -0.0184021 C75.34646943 0.0360132 78.01928832 0.66826081 81.70898438 3.38818359 C83.35475087 5.81147778 83.35475087 5.81147778 84.8202095 8.75209236 C85.67023226 10.43215691 85.67023226 10.43215691 86.53742719 12.14616215 C87.15111732 13.39420354 87.76454782 14.64237263 88.37774658 15.89065552 C89.040121 17.21306796 89.7037272 18.53486401 90.36845851 19.85609329 C92.19211566 23.48968345 93.9981792 27.13177777 95.80153179 30.77547812 C97.74908333 34.70283636 99.71279919 38.62209992 101.67459106 42.5423584 C105.07165267 49.33622156 108.45845846 56.13511676 111.83841705 62.93750381 C116.72597745 72.77391256 121.62934421 82.60237321 126.53669485 92.42892073 C134.49880585 108.3733468 142.44868124 124.32384043 150.390625 140.27832031 C158.10450491 155.77456629 165.82311723 171.26843774 173.54882812 186.75878906 C174.0248684 187.71327407 174.50090867 188.66775908 174.9913744 189.65116788 C179.72245615 199.13700085 184.45427067 208.62246826 189.18620791 218.10787449 C191.02467385 221.79318867 192.86310239 225.47852151 194.70150676 229.16386642 C195.60842036 230.98190107 196.51534627 232.79992958 197.42228469 234.61795186 C203.2025609 246.20515923 208.97896921 257.79428407 214.751122 269.38554025 C217.65987497 275.22668266 220.56987578 281.06720308 223.48021558 286.907555 C225.78642985 291.53586334 228.09093316 296.16501817 230.39412864 300.79482944 C231.78689123 303.59349464 233.18128702 306.39134356 234.57617387 309.18895052 C235.21807028 310.47720942 235.85926723 311.76581711 236.49972311 313.05479278 C237.36502685 314.79609138 238.23299325 316.53606609 239.10112381 318.27595711 C239.58407575 319.24603521 240.06702769 320.21611332 240.56461453 321.21558774 C241.52943933 323.30733522 241.52943933 323.30733522 242.70898438 324.38818359 C242.95841797 323.85902344 243.20785156 323.32986328 243.46484375 322.78466797 C249.39176583 310.23917222 255.47952277 297.78538349 261.70898438 285.38818359 C266.76604896 275.32363493 271.73709978 265.22943677 276.55664062 255.04833984 C280.64333102 246.44926215 284.91335611 237.94495028 289.18878174 229.43884277 C293.25943174 221.33624539 297.26658066 213.20933278 301.14648438 205.01318359 C305.5377827 195.73822925 310.10200084 186.55717182 314.70898438 177.38818359 C319.29505957 168.26077671 323.83934148 159.12189382 328.20898438 149.88818359 C332.91220454 139.94957462 337.82307674 130.12206003 342.75924683 120.2979126 C347.01459535 111.82498676 351.21271908 103.33262905 355.27148438 94.76318359 C359.34514079 86.18669316 363.48217042 77.6427657 367.69308472 69.13287354 C368.36579907 67.77063151 369.03570178 66.40699709 369.70266724 65.04193115 C370.63451205 63.13647028 371.57660235 61.23642479 372.52148438 59.33740234 C373.06417969 58.2374292 373.606875 57.13745605 374.16601562 56.00415039 C375.70898438 53.38818359 375.70898438 53.38818359 378.70898438 51.38818359 C385.16181456 51.84101378 385.16181456 51.84101378 387.70898438 54.38818359 C388.81610822 61.43906378 385.53168858 66.72846801 382.40820312 72.89208984 C381.85719437 74.00639877 381.30618561 75.1207077 380.73847961 76.26878357 C379.26801473 79.23608876 377.78583788 82.19691238 376.29754639 85.15527344 C374.82767689 88.08406035 373.37366558 91.02069244 371.91796875 93.95654297 C368.53192527 100.77562047 365.12311323 107.58313356 361.70898438 114.38818359 C360.16956647 117.45809729 358.63051718 120.5281931 357.09260559 123.59886169 C356.18941551 125.40188137 355.28521174 127.20439385 354.37968445 129.00624084 C351.34785676 135.054999 348.41745403 141.14832955 345.52148438 147.26318359 C341.03936805 156.70114179 336.39966519 166.05279427 331.70898438 175.38818359 C327.12289042 184.515581 322.57862704 193.65447387 318.20898438 202.88818359 C313.5054429 212.82747154 308.59420351 222.65564111 303.65771484 232.48046875 C299.42362044 240.91111775 295.24467956 249.36015494 291.20898438 257.88818359 C286.50704945 267.82407666 281.59764635 277.64897154 276.66275024 287.47039795 C272.322448 296.11230088 268.04215678 304.77562692 263.89648438 313.51318359 C260.20121484 321.29057445 256.46320791 329.04454459 252.64648438 336.76318359 C252.18072998 337.71596191 251.71497559 338.66874023 251.23510742 339.65039062 C250.80238525 340.52034668 250.36966309 341.39030273 249.92382812 342.28662109 C249.54347412 343.0566748 249.16312012 343.82672852 248.77124023 344.62011719 C247.70898438 346.38818359 247.70898438 346.38818359 245.70898438 347.38818359 C239.31920887 347.85289454 239.31920887 347.85289454 237.16947764 346.21578616 C235.32768015 343.91103482 234.0977899 341.53796151 232.77859211 338.89654255 C232.20134209 337.74801565 231.62409207 336.59948876 231.02934963 335.41615802 C230.3935081 334.13591578 229.75777776 332.85561831 229.12214661 331.57527161 C228.44360257 330.21949136 227.76453133 328.86397486 227.08497733 327.50870055 C225.21648976 323.77844682 223.35552417 320.04448357 221.4957372 316.3098861 C219.48987996 312.28523948 217.47710736 308.26405354 215.46516418 304.2424469 C211.97940266 297.27249837 208.49804883 290.30036281 205.01966286 283.32673073 C199.99046901 273.24398183 194.95466639 263.16454547 189.91723462 253.08591028 C181.74489667 236.73466538 173.57792405 220.38074678 165.41430664 204.02514648 C157.48319601 188.13539627 149.54957048 172.24690593 141.61254883 156.36010742 C141.12346972 155.38116104 140.63439062 154.40221466 140.13049094 153.39360324 C137.67695642 148.48261916 135.22337233 143.57165984 132.76976359 138.66071284 C112.40848254 97.90704086 92.05590067 57.14902909 71.70898438 16.38818359 C70.70531326 16.38675858 69.70164215 16.38533356 68.66755676 16.38386536 C59.20641178 16.36719199 49.74569672 16.32440816 40.28477955 16.25609303 C35.42082878 16.22180982 30.55719255 16.19671098 25.69311523 16.19262695 C20.99847083 16.18834685 16.30453611 16.15990824 11.61011314 16.11475182 C9.81961896 16.10176757 8.02903988 16.09747243 6.23850441 16.1020298 C3.72894399 16.10692941 1.22146292 16.08087478 -1.2878418 16.04760742 C-2.39699196 16.06054588 -2.39699196 16.06054588 -3.52854919 16.07374573 C-7.41816745 15.98737046 -9.17082077 15.48115596 -12.28340149 13.0735321 C-14.29101562 10.38818359 -14.29101562 10.38818359 -14.41601562 6.76318359 C-13.29101562 3.38818359 -13.29101562 3.38818359 -11.2388916 1.70150757 C-7.45779749 0.01697213 -4.06148664 -0.03207382 0 0 Z " fill="#F9BF52" transform="translate(25.291015625,9.61181640625)"/>
</svg>
