<?xml version="1.0" standalone="no"?>
<!DOCTYPE svg PUBLIC "-//W3C//DTD SVG 20010904//EN"
 "http://www.w3.org/TR/2001/REC-SVG-20010904/DTD/svg10.dtd">
<svg version="1.0" xmlns="http://www.w3.org/2000/svg"
 width="469.000000pt" height="458.000000pt" viewBox="0 0 469.000000 458.000000"
 preserveAspectRatio="xMidYMid meet">

<g transform="translate(0.000000,458.000000) scale(0.100000,-0.100000)"
fill="#000000" stroke="none">
<path d="M140 4450 c-26 -26 -26 -64 0 -90 19 -19 33 -20 233 -20 l212 0 -1
62 -2 63 -211 3 c-200 2 -212 1 -231 -18z"/>
<path d="M275 4245 c-29 -28 -31 -51 -9 -83 15 -22 17 -22 298 -22 l283 0 23
-50 c13 -27 27 -50 31 -50 5 0 28 19 53 42 l44 42 -29 57 c-46 93 -30 89 -372
89 l-298 0 -24 -25z"/>
<path d="M472 4024 c-15 -10 -22 -25 -22 -49 0 -53 26 -65 145 -65 l100 0 189
-373 c104 -204 190 -373 191 -375 2 -2 30 11 64 27 l61 31 -200 400 c-120 239
-207 403 -219 410 -11 5 -79 10 -153 10 -105 0 -138 -3 -156 -16z"/>
</g>
</svg>
